<?xml version="1.0" encoding="UTF-8" standalone="no"?>
<!-- Created with Inkscape (http://www.inkscape.org/) -->

<svg
   width="33.866665mm"
   height="33.866661mm"
   viewBox="0 0 33.866665 33.866661"
   version="1.1"
   id="svg1"
   inkscape:export-filename="image.png"
   inkscape:export-xdpi="96"
   inkscape:export-ydpi="96"
   inkscape:version="1.4.3 (0d15f75042, 2025-12-25)"
   sodipodi:docname="logo.svg"
   xmlns:inkscape="http://www.inkscape.org/namespaces/inkscape"
   xmlns:sodipodi="http://sodipodi.sourceforge.net/DTD/sodipodi-0.dtd"
   xmlns="http://www.w3.org/2000/svg"
   xmlns:svg="http://www.w3.org/2000/svg">
  <sodipodi:namedview
     id="namedview1"
     pagecolor="#ffffff"
     bordercolor="#000000"
     borderopacity="0.25"
     inkscape:showpageshadow="2"
     inkscape:pageopacity="0.0"
     inkscape:pagecheckerboard="0"
     inkscape:deskcolor="#d1d1d1"
     inkscape:document-units="mm"
     inkscape:zoom="3.1215488"
     inkscape:cx="66.473412"
     inkscape:cy="87.136231"
     inkscape:window-width="1854"
     inkscape:window-height="1131"
     inkscape:window-x="0"
     inkscape:window-y="0"
     inkscape:window-maximized="1"
     inkscape:current-layer="layer1" />
  <defs
     id="defs1" />
  <g
     inkscape:label="Calque 1"
     inkscape:groupmode="layer"
     id="layer1"
     transform="translate(-87.388925,-125.41573)">
    <path
       stroke="none"
       fill="#ffd738"
       d="m 87.402125,142.87823 -0.0132,-0.52917 q 0,-7.01146 4.96093,-11.9724 4.96094,-4.96093 11.972405,-4.96093 6.99823,0 11.95917,4.96093 4.97416,4.96094 4.97416,11.9724 v 0.52917 q -0.18521,-6.6675 -4.97416,-11.44323 -4.96094,-4.96094 -11.95917,-4.96094 -7.011465,0 -11.972405,4.96094 -4.77572,4.77573 -4.9477,11.44323"
       id="path119"
       style="stroke-width:0.264583;fill:#99c1f1;fill-opacity:1" />
    <path
       stroke="none"
       fill="#ffcc00"
       d="m 121.25556,142.87823 q -0.18521,6.65427 -4.97416,11.43 -1.03188,1.0451 -2.15636,1.86531 l -0.58208,-1.05833 q -3.98198,-6.97177 -9.63083,-6.97177 -5.648865,0 -9.644075,6.97177 l -0.33073,0.60854 -1.5875,-1.41552 q -4.77572,-4.77573 -4.9477,-11.43 0.17198,-6.6675 4.9477,-11.44323 4.96094,-4.96094 11.972405,-4.96094 6.99823,0 11.95917,4.96094 4.78895,4.77573 4.97416,11.44323"
       id="path120"
       style="stroke-width:0.264583;fill:#62a0ea;fill-opacity:1" />
    <path
       stroke="none"
       fill="#eebe00"
       d="m 114.12504,156.17354 q -4.27302,3.10885 -9.80281,3.10885 -5.926675,0 -10.384905,-3.55864 l 0.33073,-0.60854 q 3.99521,-6.97177 9.644075,-6.97177 5.64885,0 9.63083,6.97177 l 0.58208,1.05833"
       id="path121"
       style="stroke-width:0.264583;fill:#3584e4;fill-opacity:1" />
    <path
       stroke="none"
       fill="#ffffff"
       d="m 115.88452,143.11635 q 0,-0.96573 -0.64823,-1.61396 -0.67469,-0.67468 -1.64041,-0.67468 -0.92605,0 -1.61396,0.67468 -0.67469,0.64823 -0.67469,1.61396 l 0.0132,0.2249 q 0.0661,0.78052 0.66146,1.34937 0.68791,0.66146 1.61396,0.66146 0.96572,0 1.64041,-0.66146 0.56886,-0.56885 0.635,-1.34937 l 0.0132,-0.2249 m 1.99761,0.0265 q 0,1.50813 -1.07157,2.54 -1.07156,1.08479 -2.57968,1.08479 -1.48167,0 -2.57969,-1.08479 -1.04511,-1.03187 -1.04511,-2.54 0,-1.52135 1.04511,-2.57969 1.09802,-1.07156 2.57969,-1.07156 1.50812,0 2.57968,1.07156 1.07157,1.05834 1.07157,2.57969"
       id="path122"
       style="stroke-width:0.264583" />
    <path
       stroke="none"
       fill="#5b5b5b"
       d="m 115.88452,143.11635 -0.0132,0.2249 q -0.0661,0.78052 -0.635,1.34937 -0.67469,0.66146 -1.64041,0.66146 -0.92605,0 -1.61396,-0.66146 -0.59532,-0.56885 -0.66146,-1.34937 l -0.0132,-0.2249 q 0,-0.96573 0.67469,-1.61396 0.68791,-0.67468 1.61396,-0.67468 0.96572,0 1.64041,0.67468 0.64823,0.64823 0.64823,1.61396"
       id="path123"
       style="stroke-width:0.264583" />
    <path
       stroke="none"
       fill="#5b5b5b"
       d="m 92.759935,143.11635 q 0,-0.96573 0.64823,-1.61396 0.67469,-0.67468 1.64041,-0.67468 0.92605,0 1.61396,0.67468 0.67469,0.64823 0.67469,1.61396 l -0.0132,0.2249 q -0.0661,0.78052 -0.66146,1.34937 -0.68791,0.66146 -1.61396,0.66146 -0.96572,0 -1.64041,-0.66146 -0.56886,-0.56885 -0.635,-1.34937 l -0.0132,-0.2249"
       id="path124"
       style="stroke-width:0.264583" />
    <path
       stroke="none"
       fill="#ffffff"
       d="m 92.759935,143.11635 0.0132,0.2249 q 0.0661,0.78052 0.635,1.34937 0.67469,0.66146 1.64041,0.66146 0.92605,0 1.61396,-0.66146 0.59532,-0.56885 0.66146,-1.34937 l 0.0132,-0.2249 q 0,-0.96573 -0.67469,-1.61396 -0.68791,-0.67468 -1.61396,-0.67468 -0.96572,0 -1.64041,0.67468 -0.64823,0.64823 -0.64823,1.61396 m -1.99761,0.0265 q 0,-1.52135 1.07157,-2.57969 1.07156,-1.07156 2.57968,-1.07156 1.48167,0 2.57969,1.07156 1.04511,1.05834 1.04511,2.57969 0,1.50813 -1.04511,2.54 -1.09802,1.08479 -2.57969,1.08479 -1.50812,0 -2.57968,-1.08479 -1.07157,-1.03187 -1.07157,-2.54"
       id="path125"
       style="stroke-width:0.264583" />
    <path
       stroke="none"
       fill="#ff9900"
       d="m 110.23567,145.53729 q -0.13229,0.35719 -0.51594,0.68792 -0.34396,-1.33615 -1.45521,-2.38125 l -0.62177,-0.51594 q -1.42875,-0.99219 -3.29406,-0.99219 -1.86531,0 -3.29406,0.99219 -0.33073,0.22489 -0.64823,0.51594 -1.098025,1.0451 -1.441985,2.38125 -0.39688,-0.3175 -0.52917,-0.68792 0.29104,-1.83885 1.666885,-3.24115 0.34395,-0.34395 0.70114,-0.59531 1.53459,-1.15094 3.54542,-1.15094 2.01083,0 3.54541,1.15094 l 0.67469,0.59531 q 1.38906,1.4023 1.66688,3.24115"
       id="path126"
       style="stroke-width:0.264583" />
    <path
       stroke="none"
       fill="#f39100"
       d="m 98.964415,146.22521 q 0.34396,-1.33615 1.441985,-2.38125 0.3175,-0.29105 0.64823,-0.51594 1.42875,-0.99219 3.29406,-0.99219 1.86531,0 3.29406,0.99219 l 0.62177,0.51594 q 1.11125,1.0451 1.45521,2.38125 -0.42333,0.34395 -1.15094,0.635 -1.74625,0.71437 -4.2201,0.71437 -2.48708,0 -4.24656,-0.71437 -0.727615,-0.29105 -1.137715,-0.635"
       id="path127"
       style="stroke-width:0.264583" />
    <path
       stroke="none"
       fill="#e08600"
       d="m 110.23567,145.53729 0.0794,0.97896 -0.0265,0.39687 q -0.10583,1.32292 -1.71979,2.27542 -1.74625,1.01865 -4.2201,1.01865 -2.48708,0 -4.24656,-1.01865 -1.600735,-0.9525 -1.719805,-2.27542 l -0.0132,-0.39687 q 0,-0.51594 0.0661,-0.97896 0.13229,0.37042 0.52917,0.68792 0.4101,0.34395 1.137715,0.635 1.75948,0.71437 4.24656,0.71437 2.47385,0 4.2201,-0.71437 0.72761,-0.29105 1.15094,-0.635 0.38365,-0.33073 0.51594,-0.68792"
       id="path128"
       style="stroke-width:0.264583" />
    <path
       stroke="none"
       fill="#eebe00"
       d="m 107.86765,129.76812 q 1.03187,1.78594 1.23031,3.34698 0.23812,1.54781 -0.48948,1.95792 -0.7276,0.42333 -1.97115,-0.5424 -1.21708,-0.96573 -2.24895,-2.75166 l -0.23813,-0.41011 q -0.42333,-0.84666 -0.3175,-1.71979 0.10583,-0.96573 0.83344,-1.38906 0.7276,-0.41011 1.62719,-0.0265 0.79375,0.34396 1.32291,1.13771 l 0.25136,0.39687 m -5.21229,2.03729 q -0.67469,1.19063 -1.50813,1.82563 -0.80698,0.64823 -1.283235,0.35719 -0.47625,-0.26459 -0.33073,-1.29646 0.14552,-1.03188 0.820215,-2.20927 l 0.15875,-0.27782 q 0.35719,-0.52916 0.88635,-0.75406 0.59532,-0.26458 1.07157,0.0132 0.47625,0.29104 0.55562,0.93927 0.0662,0.55563 -0.21166,1.12448 l -0.15875,0.27781"
       id="path129"
       style="stroke-width:0.264583;fill:#3584e4;fill-opacity:1" />
  </g>
</svg>
